<?xml version="1.0" encoding="utf-8"?><!-- Uploaded to: SVG Repo, www.svgrepo.com, Generator: SVG Repo Mixer Tools -->
<svg width="800px" height="800px" viewBox="0 0 24 24" fill="none" xmlns="http://www.w3.org/2000/svg">
<path d="M6.8 2.4C6.46863 1.95817 5.84183 1.86863 5.4 2.2C4.95817 2.53137 4.86863 3.15817 5.2 3.6L10.75 11H7C6.44771 11 6 11.4477 6 12C6 12.5523 6.44771 13 7 13H11V21C11 21.5523 11.4477 22 12 22C12.5523 22 13 21.5523 13 21V13H17C17.5523 13 18 12.5523 18 12C18 11.4477 17.5523 11 17 11H13.25L18.8 3.6C19.1314 3.15817 19.0418 2.53137 18.6 2.2C18.1582 1.86863 17.5314 1.95817 17.2 2.4L12 9.33333L6.8 2.4Z" fill="#0F0F0F"/>
</svg>