<svg xmlns="http://www.w3.org/2000/svg" width="237" height="210" viewBox="0 0 237 210" fill="none">
  <g clip-path="url(#clip0_157_5383)">
    <path d="M183.307 185.535L186.41 174.01C192.448 172.324 198.806 172.137 204.932 173.466C194.98 178.481 193.084 191.988 185.317 199.98C182.876 202.453 179.909 204.346 176.636 205.517C173.364 206.689 169.87 207.109 166.413 206.746L158.406 209.495C158.637 203.889 160.08 198.4 162.637 193.405C165.193 188.41 168.802 184.029 173.215 180.563C175.709 178.643 178.436 177.045 181.33 175.807C182.029 180.633 183.307 185.535 183.307 185.535Z" fill="#F2F2F2"/>
    <path d="M38.2137 169.149L32.9756 149.697C22.7853 146.851 12.0544 146.536 1.71484 148.779C18.5112 157.243 21.7113 180.04 34.8202 193.527C38.941 197.703 43.9485 200.897 49.4717 202.874C54.9949 204.851 60.8922 205.559 66.7265 204.947L80.2397 209.588C79.8505 200.126 77.4147 190.861 73.1 182.431C68.7853 174.001 62.6943 166.606 55.2467 160.757C51.0361 157.517 46.4342 154.82 41.5496 152.73C40.3695 160.875 38.2137 169.149 38.2137 169.149Z" fill="#F2F2F2"/>
    <path d="M173.485 49.8706V18.2824C173.485 13.4336 171.559 8.78339 168.13 5.35478C164.701 1.92617 160.051 0 155.202 0H88.2785C83.4297 9.16131e-07 78.7795 1.92618 75.3509 5.35479C71.9223 8.7834 69.9961 13.4336 69.9961 18.2824V191.578C69.9961 196.426 71.9223 201.077 75.3509 204.505C78.7795 207.934 83.4297 209.86 88.2784 209.86H155.202C160.051 209.86 164.701 207.934 168.13 204.505C171.559 201.077 173.485 196.426 173.485 191.578V72.3556C173.636 72.3556 173.786 72.3257 173.926 72.2678C174.066 72.2098 174.193 72.1249 174.3 72.0178C174.407 71.9108 174.492 71.7837 174.55 71.6438C174.608 71.5039 174.638 71.3539 174.638 71.2025V51.0236C174.638 50.7178 174.516 50.4245 174.3 50.2083C174.084 49.9921 173.791 49.8706 173.485 49.8706Z" fill="#2C4260"/>
    <path d="M169.592 18.4065V191.451C169.592 195.046 168.174 198.495 165.646 201.05C163.118 203.605 159.684 205.059 156.09 205.097C156.04 205.102 155.99 205.104 155.94 205.103H88.6907C85.0701 205.103 81.598 203.664 79.0379 201.104C76.4778 198.544 75.0394 195.072 75.0391 191.451V18.4065C75.0394 14.786 76.4778 11.3138 79.0379 8.75372C81.598 6.19361 85.0701 4.75522 88.6907 4.75488H96.8518C96.4506 5.74012 96.2977 6.80887 96.4065 7.86708C96.5154 8.92528 96.8826 9.94052 97.476 10.8235C98.0693 11.7064 98.8705 12.43 99.8092 12.9306C100.748 13.4311 101.795 13.6933 102.859 13.6941H141.199C142.262 13.6912 143.308 13.4275 144.245 12.9262C145.182 12.4249 145.982 11.7013 146.575 10.8188C147.167 9.93636 147.534 8.92203 147.643 7.86479C147.752 6.80754 147.6 5.73969 147.2 4.75488H155.94C159.561 4.75521 163.033 6.19361 165.593 8.75371C168.153 11.3138 169.592 14.786 169.592 18.4065Z" fill="white"/>
    <path d="M70.3688 67.5415C69.9562 67.541 69.5606 67.3769 69.2689 67.0852C68.9771 66.7934 68.813 66.3978 68.8125 65.9852V55.4026C68.8131 54.9902 68.9774 54.595 69.2691 54.3036C69.5609 54.0123 69.9564 53.8486 70.3688 53.8486C70.7811 53.8486 71.1766 54.0123 71.4684 54.3036C71.7602 54.595 71.9244 54.9902 71.9251 55.4026V65.9853C71.9246 66.3979 71.7604 66.7934 71.4687 67.0852C71.1769 67.3769 70.7814 67.541 70.3688 67.5415Z" fill="#3F3D56"/>
    <path d="M70.0563 46.9985C69.6437 46.9981 69.2481 46.8339 68.9564 46.5422C68.6646 46.2504 68.5005 45.8549 68.5 45.4423V34.8596C68.5006 34.4473 68.6649 34.052 68.9566 33.7607C69.2484 33.4693 69.6439 33.3057 70.0563 33.3057C70.4686 33.3057 70.8641 33.4693 71.1559 33.7607C71.4477 34.052 71.6119 34.4473 71.6125 34.8596V45.4423C71.6121 45.8549 71.4479 46.2504 71.1562 46.5422C70.8644 46.8339 70.4689 46.9981 70.0563 46.9985Z" fill="#3F3D56"/>
    <path d="M111.453 6.53577C111.454 6.12317 111.618 5.7276 111.909 5.43585C112.201 5.1441 112.597 4.97998 113.009 4.97949H123.592C124.004 4.98011 124.4 5.14434 124.691 5.43613C124.982 5.72793 125.146 6.12342 125.146 6.53577C125.146 6.94812 124.982 7.34361 124.691 7.6354C124.4 7.92719 124.004 8.09142 123.592 8.09204H113.009C112.597 8.09155 112.201 7.92743 111.909 7.63568C111.618 7.34393 111.454 6.94837 111.453 6.53577Z" fill="white"/>
    <path d="M70.3688 85.5952C69.9562 85.5947 69.5606 85.4306 69.2689 85.1389C68.9771 84.8471 68.813 84.4515 68.8125 84.0389V73.4563C68.8131 73.044 68.9774 72.6487 69.2691 72.3574C69.5609 72.066 69.9564 71.9023 70.3688 71.9023C70.7811 71.9023 71.1766 72.066 71.4684 72.3574C71.7602 72.6487 71.9244 73.044 71.9251 73.4563V84.0389C71.9246 84.4515 71.7604 84.8471 71.4687 85.1389C71.1769 85.4306 70.7814 85.5947 70.3688 85.5952Z" fill="#3F3D56"/>
    <path d="M129.502 8.09203C130.361 8.09203 131.058 7.39527 131.058 6.53576C131.058 5.67626 130.361 4.97949 129.502 4.97949C128.642 4.97949 127.945 5.67626 127.945 6.53576C127.945 7.39527 128.642 8.09203 129.502 8.09203Z" fill="white"/>
    <path d="M115.012 198.392L119.201 198.392L121.193 182.236H115.012L115.012 198.392Z" fill="#9E616A"/>
    <path d="M113.945 197.024L115.124 197.024L119.727 195.152L122.194 197.024C123.588 197.024 124.926 197.578 125.911 198.564C126.897 199.549 127.451 200.887 127.451 202.281V202.451L113.946 202.452L113.945 197.024Z" fill="#2F2E41"/>
    <path d="M134.473 198.392L138.662 198.392L140.654 182.236H134.473L134.473 198.392Z" fill="#9E616A"/>
    <path d="M133.402 197.024L134.581 197.024L139.184 195.152L141.651 197.024H141.652C143.046 197.024 144.383 197.578 145.368 198.564C146.354 199.549 146.908 200.887 146.908 202.281V202.451L133.403 202.452L133.402 197.024Z" fill="#2F2E41"/>
    <path d="M137.819 109.98L104.91 110.839L105.482 126.864C105.482 126.864 104.91 131.157 106.055 132.301C107.199 133.446 107.772 133.446 107.199 135.449C106.627 137.452 109.651 140.724 109.284 141.091C108.916 141.459 108.058 143.462 108.058 143.462L110.92 159.773C110.92 159.773 112.923 188.104 113.495 188.676C114.067 189.249 114.64 188.676 114.067 190.107C113.495 191.538 112.923 190.966 113.495 191.538C114.002 192.085 114.48 192.658 114.926 193.255H121.845C121.845 193.255 122.366 190.393 122.366 190.107C122.366 189.821 122.939 188.104 122.939 187.818C122.939 187.532 122.433 187.026 122.433 187.026C122.258 186.444 122.14 185.847 122.08 185.242C122.08 184.67 120.363 162.635 120.363 162.635L123.797 134.018L132.096 162.063C132.096 162.063 132.096 186.673 132.668 187.245C133.241 187.818 133.241 187.532 132.954 188.676C132.668 189.821 131.524 189.535 132.382 190.393C133.241 191.252 133.527 189.821 133.241 191.252L132.954 192.683L141.539 192.805C141.539 192.805 142.684 190.393 142.112 189.535C141.539 188.676 141.574 188.911 142.272 187.506C142.97 186.101 143.256 185.815 142.97 185.528C142.684 185.242 142.684 183.72 142.684 183.72L141.253 156.339C141.253 156.339 140.967 127.437 140.967 126.578C140.946 126.136 141.027 125.696 141.205 125.291V124.125L140.109 119.996L137.819 109.98Z" fill="#F66C43"/>
    <path d="M112.07 52.506C116.97 52.506 120.942 48.5342 120.942 43.6348C120.942 38.7354 116.97 34.7637 112.07 34.7637C107.171 34.7637 103.199 38.7354 103.199 43.6348C103.199 48.5342 107.171 52.506 112.07 52.506Z" fill="#FFD2B8"/>
    <path d="M108.04 49.6702L107.681 49.3825C107.674 49.3771 106.993 48.8363 106.342 48.931C106.194 48.9556 106.052 49.0115 105.927 49.0948C105.802 49.1782 105.696 49.2872 105.616 49.4145C105.571 49.4846 105.505 49.5395 105.428 49.5723C105.351 49.605 105.266 49.6142 105.184 49.5985C104.34 49.4656 102.816 46.9682 102.048 44.4596C101.575 42.9126 101.017 40.1094 102.554 38.6155C102.673 37.9392 103.9 31.8427 109.291 31.6734C114.838 31.4969 118.531 32.6171 119.422 34.7404C119.573 35.1017 119.726 35.5269 119.876 36.0042C119.953 36.237 119.962 36.4868 119.902 36.7245C119.843 36.9623 119.717 37.1784 119.54 37.3478C119.38 37.5041 119.183 37.6181 118.967 37.6796C118.751 37.7411 118.524 37.7482 118.305 37.7001C118.278 37.9727 118.206 38.239 118.093 38.4885C117.609 39.5389 116.389 40.2244 114.986 40.235C114.155 40.2228 113.332 40.0641 112.556 39.7661L114.8 41.4928L109.437 40.8255L111.194 41.7648L110.842 41.932C109.749 42.4161 108.848 43.2485 108.279 44.299C107.71 45.3496 107.505 46.5591 107.696 47.7385L108.04 49.6702Z" fill="#A44417"/>
    <path d="M136.198 105.74C137.447 103.585 136.258 100.471 136.258 100.471C136.258 100.471 139.487 95.6961 138.695 93.6595L134.892 64.1922C134.892 64.1922 133.703 61.0225 130.93 59.4376C130.169 59.0028 126.175 59.1737 125.299 59.181L122.454 57.9646C122.288 58.5681 119.185 52.2776 119.169 52.9032C117.188 52.9032 115.912 53.1765 112.83 53.6956C107.478 54.5975 110.174 59.4334 110.513 60.0043C110.377 60.0131 110.241 60.032 110.108 60.0606C109.41 60.1914 107.033 62.2477 107.033 62.2477L102.782 66.0237C96.3748 71.0516 97.8091 78.8967 97.8091 78.8967L107.152 88.2989L103.059 107.163C103.059 107.163 104.798 109.964 103.899 111.22C102.999 112.476 111.823 112.115 111.823 112.115C117.913 114.83 139.368 112.535 139.368 112.535C139.071 111.759 136.198 105.74 136.198 105.74Z" fill="#F9997C"/>
    <path d="M0.410101 209.892H235.778C235.887 209.892 235.992 209.848 236.069 209.771C236.145 209.694 236.189 209.59 236.189 209.481C236.189 209.372 236.145 209.267 236.069 209.19C235.992 209.113 235.887 209.07 235.778 209.069H0.410101C0.301225 209.07 0.196924 209.113 0.120048 209.19C0.0431724 209.267 0 209.372 0 209.481C0 209.59 0.0431724 209.694 0.120048 209.771C0.196924 209.848 0.301225 209.892 0.410101 209.892Z" fill="#CACACA"/>
    <path d="M154.787 200.88C154.787 202.673 154.731 204.451 154.618 206.213C154.569 206.219 154.519 206.221 154.47 206.22H87.2216C84.179 206.22 81.2236 205.204 78.8243 203.333C76.425 201.462 74.7194 198.843 73.9779 195.892C73.8479 195.377 73.7499 194.854 73.6843 194.327C73.6078 193.744 73.5698 193.157 73.5703 192.569V115.452C78.7448 115.708 83.8852 116.434 88.928 117.621C89.422 117.735 89.9125 117.856 90.3996 117.981C90.4307 117.988 90.4618 117.998 90.4928 118.005C90.9868 118.129 91.4773 118.26 91.9643 118.395C102.36 121.25 112.119 126.055 120.721 132.554C121.215 132.924 121.706 133.304 122.193 133.687L122.286 133.76C123.101 134.402 123.904 135.061 124.694 135.736C124.87 135.884 125.046 136.036 125.219 136.192C125.644 136.558 126.068 136.931 126.483 137.307C135.656 145.564 142.938 155.704 147.83 167.035C147.993 167.405 148.148 167.778 148.304 168.151C148.366 168.303 148.428 168.455 148.49 168.607C148.549 168.745 148.604 168.883 148.659 169.021C152.72 179.151 154.801 189.966 154.787 200.88Z" fill="#2C4260"/>
    <path opacity="0.2" d="M123.759 193.211C123.758 189.98 124.394 186.78 125.631 183.795C126.867 180.809 128.679 178.097 130.964 175.812C133.249 173.527 135.962 171.715 138.947 170.478C141.933 169.242 145.132 168.606 148.364 168.606H148.491C148.429 168.454 148.367 168.302 148.305 168.15C148.149 167.777 147.994 167.404 147.832 167.035H123.759V136.191H125.22C125.047 136.036 124.871 135.884 124.695 135.735C123.904 135.062 123.101 134.403 122.287 133.76L122.194 133.687V134.62H91.9655V118.395C91.4784 118.26 90.9879 118.129 90.494 118.005C90.4629 117.998 90.4318 117.987 90.4007 117.98V134.62H75.043V136.191H90.4007V167.035H75.043V168.606H90.4007V193.211H75.157C75.2225 193.738 75.3206 194.261 75.4506 194.776H90.4007V205.104H91.9655V194.776H122.194V205.104H123.759V194.776H150.132V193.211H123.759ZM122.194 193.211H91.9655V168.606H122.194V193.211ZM122.194 167.035H91.9655V166.42C91.9655 158.403 95.1503 150.714 100.819 145.045C106.488 139.376 114.177 136.191 122.194 136.191V167.035Z" fill="#041A38"/>
    <path d="M105.591 126.731C105.28 126.382 105.05 125.969 104.916 125.522C104.782 125.074 104.748 124.603 104.816 124.141C104.884 123.678 105.052 123.237 105.309 122.847C105.566 122.457 105.906 122.128 106.304 121.883L102.273 106.039L107.784 108.151L110.846 123.112C111.213 123.808 111.311 124.614 111.123 125.378C110.935 126.142 110.474 126.81 109.826 127.256C109.178 127.702 108.389 127.895 107.609 127.798C106.828 127.701 106.11 127.322 105.591 126.731Z" fill="#FFD2B8"/>
    <path d="M98.1729 75.8838L97.6752 82.2108C97.6752 82.2108 97.0564 89.1617 97.2185 90.4471C97.3805 91.7324 97.6822 99.5819 97.6822 99.5819L102.927 109.958L108.871 108.373L108.515 103.506L108.871 107.977L109.663 104.015L107.682 97.2794L108.871 94.9021L108.271 86.9219L98.1729 75.8838Z" fill="#F9997C"/>
    <path d="M234.839 118.575C234.139 117.745 233.147 117.216 232.067 117.099C231.914 117.082 231.759 117.074 231.605 117.073L151.947 116.999C151.371 116.997 150.8 117.113 150.27 117.341C149.74 117.568 149.262 117.902 148.866 118.321C148.104 119.15 147.687 120.239 147.702 121.366L147.69 134.305C147.683 136.65 148.191 138.967 149.178 141.094C148.627 143.181 147.707 145.153 146.461 146.915C146.074 147.474 145.852 148.13 145.82 148.809C145.789 149.488 145.95 150.162 146.285 150.754C146.619 151.346 147.114 151.831 147.712 152.154C148.31 152.477 148.987 152.625 149.666 152.58C150.505 152.528 151.342 152.433 152.172 152.295C154.587 151.917 156.891 151.019 158.926 149.664C160.491 150.157 162.122 150.408 163.763 150.409L219.776 150.461C221.888 150.469 223.981 150.057 225.933 149.248C227.884 148.44 229.656 147.251 231.144 145.752C234.176 142.657 235.861 138.488 235.83 134.155L235.842 121.453C235.86 120.405 235.504 119.385 234.839 118.575Z" fill="#94E19B"/>
    <path d="M214.033 128.74L169.511 128.698C169.384 128.698 169.258 128.673 169.14 128.624C169.023 128.575 168.916 128.504 168.826 128.414C168.736 128.324 168.665 128.217 168.616 128.099C168.568 127.982 168.543 127.856 168.543 127.729C168.543 127.601 168.568 127.475 168.617 127.358C168.666 127.24 168.737 127.134 168.827 127.044C168.917 126.954 169.024 126.883 169.142 126.834C169.259 126.786 169.385 126.761 169.513 126.761L214.034 126.802C214.291 126.803 214.538 126.905 214.719 127.087C214.901 127.269 215.002 127.515 215.002 127.772C215.002 128.029 214.9 128.275 214.718 128.457C214.536 128.638 214.29 128.74 214.033 128.74Z" fill="white"/>
    <path d="M214.025 134.687L169.503 134.645C169.376 134.645 169.25 134.62 169.132 134.571C169.015 134.523 168.908 134.451 168.818 134.361C168.728 134.271 168.657 134.164 168.609 134.047C168.56 133.929 168.535 133.803 168.535 133.676C168.535 133.549 168.56 133.423 168.609 133.305C168.658 133.188 168.729 133.081 168.82 132.991C168.91 132.901 169.016 132.83 169.134 132.781C169.252 132.733 169.378 132.708 169.505 132.708L214.027 132.75C214.284 132.75 214.53 132.852 214.711 133.034C214.893 133.216 214.995 133.462 214.994 133.719C214.994 133.976 214.892 134.222 214.71 134.404C214.528 134.585 214.282 134.687 214.025 134.687Z" fill="white"/>
    <path d="M174.687 140.597L169.499 140.592C169.372 140.592 169.246 140.566 169.128 140.518C169.011 140.469 168.904 140.397 168.814 140.307C168.724 140.217 168.653 140.11 168.605 139.993C168.556 139.875 168.531 139.749 168.531 139.622C168.531 139.495 168.557 139.369 168.605 139.251C168.654 139.134 168.726 139.027 168.816 138.937C168.906 138.848 169.013 138.776 169.13 138.728C169.248 138.679 169.374 138.654 169.501 138.654L174.689 138.659C174.946 138.66 175.192 138.762 175.373 138.944C175.554 139.126 175.656 139.372 175.655 139.629C175.655 139.885 175.553 140.131 175.372 140.313C175.19 140.494 174.944 140.596 174.687 140.597Z" fill="white"/>
    <path d="M1.10531 68.4877C1.80521 67.6576 2.79792 67.129 3.87731 67.0117C4.03079 66.9951 4.18504 66.9867 4.33942 66.9865L83.9973 66.9121C84.574 66.9101 85.1449 67.0264 85.6748 67.2537C86.2047 67.4811 86.6823 67.8148 87.0782 68.2341C87.8408 69.0631 88.2575 70.1523 88.2428 71.2786L88.2549 84.2186C88.2611 86.5631 87.7531 88.8805 86.7666 91.0074C87.3171 93.0945 88.2371 95.066 89.4831 96.8284C89.8707 97.3868 90.093 98.0433 90.1243 98.7224C90.1555 99.4014 89.9946 100.076 89.6599 100.667C89.3253 101.259 88.8304 101.744 88.2323 102.067C87.6342 102.39 86.9571 102.538 86.2788 102.493C85.4392 102.442 84.6028 102.346 83.773 102.208C81.3579 101.83 79.0535 100.933 77.0188 99.5776C75.4537 100.07 73.8225 100.321 72.1816 100.322L16.1688 100.374C14.0564 100.382 11.9634 99.9697 10.0117 99.1612C8.06007 98.3527 6.28865 97.1642 4.8005 95.6648C1.76831 92.5696 0.0835945 88.4007 0.114069 84.0679L0.102189 71.3663C0.0845471 70.3181 0.440092 69.2979 1.10531 68.4877Z" fill="#94E19B"/>
    <path d="M20.9492 77.686C20.9493 77.4292 21.0512 77.1829 21.2326 77.0011C21.4141 76.8193 21.6602 76.7169 21.917 76.7164L66.4389 76.6748C66.6958 76.6746 66.9423 76.7764 67.1241 76.9579C67.306 77.1394 67.4082 77.3857 67.4085 77.6426C67.4087 77.8995 67.3069 78.146 67.1254 78.3278C66.9439 78.5097 66.6976 78.612 66.4407 78.6122L21.9188 78.6538C21.662 78.6537 21.4157 78.5518 21.2339 78.3704C21.0522 78.1889 20.9498 77.9428 20.9492 77.686Z" fill="white"/>
    <path d="M20.957 83.6303C20.9571 83.3735 21.059 83.1272 21.2405 82.9454C21.4219 82.7636 21.668 82.6612 21.9248 82.6607L66.4467 82.6191C66.7036 82.6189 66.9501 82.7207 67.1319 82.9022C67.3138 83.0837 67.416 83.33 67.4163 83.5869C67.4165 83.8438 67.3147 84.0903 67.1332 84.2722C66.9517 84.454 66.7054 84.5563 66.4485 84.5565L21.9266 84.5981C21.6698 84.598 21.4235 84.4961 21.2417 84.3147C21.06 84.1333 20.9576 83.8871 20.957 83.6303Z" fill="white"/>
    <path d="M60.293 89.5409C60.293 89.284 60.395 89.0377 60.5764 88.856C60.7578 88.6742 61.0039 88.5718 61.2608 88.5712L66.4491 88.5664C66.706 88.5662 66.9525 88.668 67.1344 88.8495C67.3162 89.031 67.4185 89.2773 67.4187 89.5342C67.419 89.7911 67.3171 90.0376 67.1357 90.2194C66.9542 90.4013 66.7079 90.5036 66.4509 90.5038L61.2626 90.5086C61.0057 90.5086 60.7595 90.4066 60.5777 90.2252C60.3959 90.0438 60.2935 89.7977 60.293 89.5409Z" fill="white"/>
    <path d="M161.545 38.5365C161.101 38.7588 160.711 39.0757 160.403 39.4649C160.095 39.8541 159.876 40.3062 159.761 40.7892C159.647 41.2722 159.639 41.7745 159.74 42.2606C159.841 42.7468 160.047 43.2049 160.343 43.6029L153.57 53.5899L159.84 53.671L165.311 44.1748C165.946 43.6319 166.361 42.8747 166.475 42.0468C166.59 41.2189 166.396 40.3777 165.932 39.6827C165.468 38.9877 164.765 38.4872 163.956 38.2759C163.148 38.0646 162.289 38.1573 161.545 38.5365Z" fill="#FFD2B8"/>
    <path d="M163.699 47.9538L153.265 67.1401L153.172 67.1463C153.095 67.1514 149.776 67.3711 145.721 67.5912C145.037 67.6283 144.634 68.8413 143.921 68.8775C143.429 68.9023 141.615 71.1825 141.119 71.2061C136.699 71.4162 134.165 73.4359 132.483 73.2787C130.204 73.0888 127.168 66.8189 125.512 65.2413L125.473 65.1999L125.467 65.1436C125.351 63.993 125.631 62.8373 126.26 61.8669C126.889 60.8966 127.83 60.1696 128.928 59.8058C134.237 58.0777 139.875 57.6072 145.397 58.4314L148.538 58.9039L158.071 46.0996L163.699 47.9538Z" fill="#F9997C"/>
    <path d="M219.988 10.8002C219.288 9.97012 218.295 9.44151 217.216 9.32415C217.062 9.30754 216.908 9.29915 216.754 9.29902L137.096 9.22464C136.519 9.22259 135.948 9.33886 135.418 9.56625C134.888 9.79364 134.411 10.1273 134.015 10.5466C133.252 11.3756 132.835 12.4648 132.85 13.5911L132.838 26.5311C132.832 28.8756 133.34 31.193 134.326 33.3199C133.776 35.407 132.856 37.3785 131.61 39.1409C131.222 39.6993 131 40.3558 130.969 41.0348C130.937 41.7139 131.098 42.388 131.433 42.9797C131.768 43.5714 132.263 44.0566 132.861 44.3797C133.459 44.7027 134.136 44.8504 134.814 44.8059C135.654 44.754 136.49 44.6589 137.32 44.5208C139.735 44.1426 142.039 43.2451 144.074 41.8901C145.639 42.3827 147.27 42.6337 148.911 42.6346L204.924 42.6868C207.037 42.6946 209.13 42.2822 211.081 41.4737C213.033 40.6652 214.804 39.4766 216.292 37.9773C219.325 34.8821 221.009 30.7132 220.979 26.3804L220.991 13.6788C221.008 12.6306 220.653 11.6104 219.988 10.8002Z" fill="#94E19B"/>
    <path d="M199.173 20.9672L154.651 20.9257C154.524 20.9256 154.398 20.9004 154.281 20.8516C154.163 20.8028 154.057 20.7313 153.967 20.6413C153.877 20.5513 153.806 20.4444 153.757 20.3268C153.708 20.2093 153.683 20.0833 153.684 19.9561C153.684 19.8289 153.709 19.7029 153.758 19.5854C153.806 19.468 153.878 19.3612 153.968 19.2714C154.058 19.1815 154.165 19.1102 154.282 19.0617C154.4 19.0131 154.526 18.9882 154.653 18.9883L199.175 19.0298C199.432 19.0301 199.678 19.1324 199.86 19.3142C200.041 19.496 200.143 19.7425 200.143 19.9995C200.143 20.2564 200.04 20.5027 199.858 20.6842C199.677 20.8657 199.43 20.9675 199.173 20.9672Z" fill="white"/>
    <path d="M199.169 26.9126L154.647 26.871C154.391 26.8708 154.144 26.7685 153.963 26.5866C153.781 26.4048 153.679 26.1583 153.68 25.9014C153.68 25.6445 153.782 25.3982 153.964 25.2167C154.146 25.0352 154.392 24.9334 154.649 24.9336L199.171 24.9752C199.428 24.9754 199.674 25.0777 199.856 25.2595C200.037 25.4414 200.139 25.6878 200.139 25.9448C200.139 26.2017 200.036 26.448 199.855 26.6295C199.673 26.811 199.426 26.9128 199.169 26.9126Z" fill="white"/>
    <path d="M159.828 32.8211L154.64 32.8163C154.512 32.8162 154.387 32.791 154.269 32.7422C154.152 32.6934 154.045 32.622 153.955 32.5319C153.865 32.4419 153.794 32.335 153.745 32.2175C153.697 32.0999 153.672 31.9739 153.672 31.8467C153.672 31.7195 153.697 31.5936 153.746 31.4761C153.795 31.3586 153.866 31.2519 153.956 31.162C154.046 31.0721 154.153 31.0009 154.271 30.9523C154.388 30.9037 154.514 30.8788 154.641 30.8789L159.83 30.8837C160.086 30.8844 160.332 30.9869 160.514 31.1687C160.695 31.3505 160.796 31.5967 160.796 31.8533C160.796 32.11 160.694 32.356 160.512 32.5375C160.331 32.7189 160.085 32.821 159.828 32.8211Z" fill="white"/>
  </g>
  <defs>
    <clipPath id="clip0_157_5383">
      <rect width="236.191" height="209.893" fill="white"/>
    </clipPath>
  </defs>
</svg>